<svg width="35.000000" height="32.000000" viewBox="0 0 35 32" fill="none" xmlns="http://www.w3.org/2000/svg" xmlns:xlink="http://www.w3.org/1999/xlink">
	<desc>
			Created with Pixso.
	</desc>
	<defs/>
	<rect id="location" width="34.962963" height="32.000000" fill="#FFFFFF" fill-opacity="0"/>
	<path id="Vector" d="M17.5 0C11.22 0 6 4.59 6 10.45C6 12.69 6.73 14.68 8.15 16.54L16.61 28.56C17.03 29.14 17.97 29.14 18.38 28.56L26.88 16.5C28.26 14.72 29 12.63 29 10.45C29 4.69 23.84 0 17.5 0ZM17.5 15.21C14.61 15.21 12.27 13.08 12.27 10.45C12.27 7.83 14.61 5.7 17.5 5.7C20.38 5.7 22.72 7.83 22.72 10.45C22.72 13.08 20.38 15.21 17.5 15.21Z" fill="#CD06FF" fill-opacity="1.000000" fill-rule="nonzero"/>
	<path id="Vector" d="M25.48 21.54L20.33 28.92C18.99 30.82 15.95 30.82 14.63 28.92L9.46 21.54C4.91 22.5 2.11 24.26 2.11 26.37C2.11 30.02 10.03 32 17.48 32C24.92 32 32.84 30.02 32.84 26.37C32.84 24.26 30.04 22.5 25.48 21.54Z" fill="#CD06FF" fill-opacity="1.000000" fill-rule="nonzero"/>
</svg>
