<svg width="48.000000" height="48.000000" viewBox="0 0 48 48" fill="none" xmlns="http://www.w3.org/2000/svg" xmlns:xlink="http://www.w3.org/1999/xlink">
	<desc>
			Created with Pixso.
	</desc>
	<defs/>
	<path id="Vector" d="M23.99 0C10.74 0 -0.01 10.74 -0.01 24C-0.01 37.25 10.74 48 23.99 48C37.25 48 47.99 37.25 47.99 24C47.99 10.74 37.25 0 23.99 0ZM33.22 27.07C33.22 27.07 35.35 29.17 35.87 30.14C35.88 30.16 35.89 30.18 35.9 30.19C36.11 30.55 36.16 30.83 36.05 31.03C35.88 31.38 35.28 31.55 35.07 31.56L31.32 31.56C31.06 31.56 30.52 31.5 29.86 31.04C29.35 30.68 28.85 30.1 28.36 29.54C27.64 28.69 27.01 27.96 26.37 27.96C26.29 27.96 26.21 27.97 26.13 28C25.65 28.15 25.04 28.84 25.04 30.66C25.04 31.23 24.59 31.56 24.27 31.56L22.55 31.56C21.97 31.56 18.92 31.36 16.22 28.51C12.92 25.02 9.94 18.03 9.92 17.96C9.73 17.51 10.12 17.27 10.54 17.27L14.33 17.27C14.83 17.27 15 17.57 15.11 17.85C15.25 18.16 15.74 19.42 16.55 20.85C17.87 23.16 18.68 24.1 19.33 24.1C19.45 24.1 19.57 24.07 19.67 24.01C20.52 23.54 20.36 20.53 20.32 19.9C20.32 19.79 20.32 18.56 19.89 17.96C19.58 17.54 19.05 17.37 18.73 17.32C18.86 17.14 19.03 16.99 19.23 16.89C19.81 16.6 20.85 16.56 21.89 16.56L22.47 16.56C23.59 16.58 23.88 16.65 24.29 16.75C25.12 16.95 25.13 17.48 25.06 19.3C25.04 19.82 25.02 20.4 25.02 21.1C25.02 21.25 25.01 21.4 25.01 21.58C24.98 22.5 24.95 23.56 25.61 23.99C25.7 24.04 25.79 24.07 25.89 24.07C26.12 24.07 26.81 24.07 28.66 20.89C29.23 19.86 29.73 18.8 30.15 17.7C30.19 17.64 30.3 17.44 30.43 17.36C30.52 17.31 30.63 17.29 30.74 17.29L35.19 17.29C35.67 17.29 36.01 17.36 36.07 17.55C36.18 17.85 36.05 18.75 34.02 21.51L33.11 22.7C31.27 25.12 31.27 25.24 33.22 27.07Z" fill="#FFFFFF" fill-opacity="1.000000" fill-rule="nonzero"/>
</svg>
